<svg data-v-2cb57da0="" version="1.0" xmlns="http://www.w3.org/2000/svg" xmlns:xlink="http://www.w3.org/1999/xlink" width="100%" height="100%" viewBox="0 0 340.000000 250.000000" preserveAspectRatio="xMidYMid meet" color-interpolation-filters="sRGB" style="margin: auto;"><rect data-v-2cb57da0="" x="0" y="0" width="100%" height="100%" fill="#fff" fill-opacity="1" class="background"></rect> <rect data-v-2cb57da0="" x="0" y="0" width="100%" height="100%" fill="url(#watermark)" fill-opacity="1" class="watermarklayer"></rect> <g data-v-2cb57da0="" fill="#3699ea" class="icon-text-wrapper icon-svg-group iconsvg" transform="translate(81.5999984741211,78.80754089360754)"><g class="iconsvg-imagesvg" transform="translate(58.400001525878906,0)"><g><rect fill="#3699ea" fill-opacity="0" stroke-width="2" x="0" y="0" width="60" height="56.644921310763486" class="image-rect"></rect> <svg x="0" y="0" width="60" height="56.644921310763486" filtersec="colorsb4755132942" class="image-svg-svg primary" style="overflow: visible;"><svg xmlns="http://www.w3.org/2000/svg" viewBox="-0.003525275969877839 -0.0038033658638596535 264.3553466796875 249.5738983154297"><g><g fill="#3699ea"><path d="M88.26 14.26a19 19 0 0 0 18.69 5.47l65.67-17a1.38 1.38 0 0 0-.37-2.73L87.36 1a5 5 0 0 0-3.63 8.44zM204.69 14.78a10.81 10.81 0 0 0-14-7l-65.62 23.58a5.34 5.34 0 0 0-.92 9.62l98.48 58.41a4.39 4.39 0 0 0 6.43-5.06zM103 177.28a6.6 6.6 0 0 0 9.88 5.69l99.32-57.07.09-.05a6.62 6.62 0 0 0 .08-11.44L112.1 54.94a6.42 6.42 0 0 0-9.7 5.55zM263.73 136.83a5.62 5.62 0 0 0-5.94-8.11 18.67 18.67 0 0 0-14.57 12.6l-27.67 85.05a.92.92 0 0 0 1.69.7zM258.31 113.62a4.34 4.34 0 0 0 4.7-6.3L217.6 22.4a.76.76 0 0 0-1.39.63L246 103.09a16.74 16.74 0 0 0 12.31 10.53zM75.55 180.29a5.87 5.87 0 0 0 9.24-4.84l-.53-112.18A5.5 5.5 0 0 0 75.34 59L3.2 116.43A8.46 8.46 0 0 0 3.62 130zM2.32 99.68a1.64 1.64 0 0 0 2.53 2l66.77-62a11.35 11.35 0 0 0 .6-16l-7.49-8.08A8.45 8.45 0 0 0 51.25 17zM107.85 219.33a15.23 15.23 0 0 0-17.45 5.08l-10.09 13.38a5.83 5.83 0 0 0 4.51 9.35l93.49 2.43a1.9 1.9 0 0 0 .71-3.67zM226.49 147.65a4.73 4.73 0 0 0-6.94-5.3l-95.85 55.31a5.83 5.83 0 0 0 .5 10.36l66.92 30.4a9.55 9.55 0 0 0 13.2-6.28zM74.21 215.48a11.75 11.75 0 0 0-2.06-16.19L6 146.19a2.07 2.07 0 0 0-3.08 2.67l47.64 80.84a7.54 7.54 0 0 0 12.54.68z"></path></g></g></svg></svg> <!----></g></g> <g transform="translate(0,63.644920349121094)"><g data-gra="path-name" fill-rule="" class="tp-name iconsvg-namesvg"><g transform="scale(1)"><g><path d="M15.33-15.97Q16.22-15.97 16.77-15.46 17.31-14.94 17.31-14.08L17.31-14.08 17.31-1.44Q17.31 2.24 15.26 4.13 13.22 6.02 9.22 6.02L9.22 6.02Q5.73 6.02 3.39 4.7L3.39 4.7Q2.21 4 2.21 3.01L2.21 3.01Q2.21 2.3 2.54 1.89 2.88 1.47 3.42 1.47L3.42 1.47Q3.71 1.47 4.13 1.62 4.54 1.76 4.99 1.95L4.99 1.95Q6.14 2.43 7.06 2.69 7.97 2.94 9.15 2.94L9.15 2.94Q13.34 2.94 13.34-1.15L13.34-1.15 13.34-3.2Q12.64-1.89 11.3-1.17 9.95-0.45 8.22-0.45L8.22-0.45Q6.18-0.45 4.59-1.42 3.01-2.4 2.11-4.16 1.22-5.92 1.22-8.22L1.22-8.22Q1.22-10.53 2.1-12.3 2.98-14.08 4.58-15.06 6.18-16.03 8.22-16.03L8.22-16.03Q9.95-16.03 11.3-15.31 12.64-14.59 13.34-13.28L13.34-13.28 13.34-14.11Q13.34-14.94 13.89-15.46 14.43-15.97 15.33-15.97L15.33-15.97ZM9.28-3.55Q11.2-3.55 12.27-4.8 13.34-6.05 13.34-8.22L13.34-8.22Q13.34-10.43 12.27-11.68 11.2-12.93 9.28-12.93L9.28-12.93Q7.39-12.93 6.3-11.68 5.22-10.43 5.22-8.22L5.22-8.22Q5.22-6.05 6.3-4.8 7.39-3.55 9.28-3.55L9.28-3.55ZM28.58 0.26Q26.18 0.26 24.37-0.74 22.56-1.73 21.57-3.58 20.58-5.44 20.58-7.9L20.58-7.9Q20.58-10.37 21.57-12.21 22.56-14.05 24.37-15.04 26.18-16.03 28.58-16.03L28.58-16.03Q30.98-16.03 32.78-15.04 34.59-14.05 35.57-12.21 36.54-10.37 36.54-7.9L36.54-7.9Q36.54-5.44 35.57-3.58 34.59-1.73 32.78-0.74 30.98 0.26 28.58 0.26L28.58 0.26ZM28.54-2.85Q30.5-2.85 31.52-4.13 32.54-5.41 32.54-7.9L32.54-7.9Q32.54-10.37 31.52-11.66 30.5-12.96 28.58-12.96L28.58-12.96Q26.66-12.96 25.62-11.66 24.58-10.37 24.58-7.9L24.58-7.9Q24.58-5.41 25.6-4.13 26.62-2.85 28.54-2.85L28.54-2.85ZM52.9-22.72Q53.79-22.72 54.37-22.21 54.94-21.7 54.94-20.86L54.94-20.86 54.94-1.73Q54.94-0.86 54.4-0.35 53.86 0.16 52.96 0.16L52.96 0.16Q52.06 0.16 51.52-0.35 50.98-0.86 50.98-1.73L50.98-1.73 50.98-2.53Q50.27-1.22 48.94-0.48 47.62 0.26 45.92 0.26L45.92 0.26Q43.9 0.26 42.32-0.77 40.74-1.79 39.86-3.66 38.98-5.54 38.98-7.97L38.98-7.97Q38.98-10.4 39.86-12.22 40.74-14.05 42.3-15.04 43.87-16.03 45.92-16.03L45.92-16.03Q47.62-16.03 48.93-15.33 50.24-14.62 50.94-13.34L50.94-13.34 50.94-20.93Q50.94-21.73 51.47-22.22 52-22.72 52.9-22.72L52.9-22.72ZM46.98-2.85Q48.9-2.85 49.94-4.16 50.98-5.47 50.98-7.9L50.98-7.9Q50.98-10.34 49.94-11.63 48.9-12.93 47.01-12.93L47.01-12.93Q45.09-12.93 44.03-11.65 42.98-10.37 42.98-7.97L42.98-7.97Q42.98-5.54 44.03-4.19 45.09-2.85 46.98-2.85L46.98-2.85ZM71.46-4.29Q72-4.29 72.34-3.87 72.67-3.46 72.67-2.75L72.67-2.75Q72.67-1.76 71.49-1.09L71.49-1.09Q70.4-0.48 69.02-0.11 67.65 0.26 66.4 0.26L66.4 0.26Q62.62 0.26 60.42-1.92 58.21-4.1 58.21-7.87L58.21-7.87Q58.21-10.27 59.17-12.13 60.13-13.98 61.87-15.01 63.62-16.03 65.82-16.03L65.82-16.03Q67.94-16.03 69.5-15.1 71.07-14.18 71.94-12.48 72.8-10.78 72.8-8.48L72.8-8.48Q72.8-7.1 71.58-7.1L71.58-7.1 62.14-7.1Q62.34-4.9 63.39-3.86 64.45-2.82 66.46-2.82L66.46-2.82Q67.49-2.82 68.27-3.07 69.06-3.33 70.05-3.78L70.05-3.78Q71.01-4.29 71.46-4.29L71.46-4.29ZM65.92-13.22Q64.29-13.22 63.31-12.19 62.34-11.17 62.14-9.25L62.14-9.25 69.38-9.25Q69.31-11.2 68.42-12.21 67.52-13.22 65.92-13.22L65.92-13.22ZM85.06-16.03Q87.07-16.03 88.66-15.01 90.24-13.98 91.12-12.11 92-10.24 92-7.81L92-7.81Q92-5.38 91.12-3.55 90.24-1.73 88.67-0.74 87.1 0.26 85.06 0.26L85.06 0.26Q83.39 0.26 82.08-0.45 80.77-1.15 80.06-2.4L80.06-2.4 80.06 4.13Q80.06 4.96 79.52 5.44 78.98 5.92 78.08 5.92L78.08 5.92Q77.18 5.92 76.62 5.41 76.06 4.9 76.06 4.06L76.06 4.06 76.06-14.08Q76.06-14.94 76.59-15.46 77.12-15.97 78.02-15.97L78.02-15.97Q78.91-15.97 79.46-15.46 80-14.94 80-14.08L80-14.08 80-13.28Q80.7-14.59 82.03-15.31 83.36-16.03 85.06-16.03L85.06-16.03ZM84-2.85Q85.89-2.85 86.94-4.14 88-5.44 88-7.81L88-7.81Q88-10.24 86.94-11.58 85.89-12.93 84-12.93L84-12.93Q82.08-12.93 81.04-11.62 80-10.3 80-7.87L80-7.87Q80-5.47 81.04-4.16 82.08-2.85 84-2.85L84-2.85ZM108.54-15.97Q109.44-15.97 109.98-15.46 110.53-14.94 110.53-14.08L110.53-14.08 110.53-1.44Q110.53 2.24 108.48 4.13 106.43 6.02 102.43 6.02L102.43 6.02Q98.94 6.02 96.61 4.7L96.61 4.7Q95.42 4 95.42 3.01L95.42 3.01Q95.42 2.3 95.76 1.89 96.1 1.47 96.64 1.47L96.64 1.47Q96.93 1.47 97.34 1.62 97.76 1.76 98.21 1.95L98.21 1.95Q99.36 2.43 100.27 2.69 101.18 2.94 102.37 2.94L102.37 2.94Q106.56 2.94 106.56-1.15L106.56-1.15 106.56-3.2Q105.86-1.89 104.51-1.17 103.17-0.45 101.44-0.45L101.44-0.45Q99.39-0.45 97.81-1.42 96.22-2.4 95.33-4.16 94.43-5.92 94.43-8.22L94.43-8.22Q94.43-10.53 95.31-12.3 96.19-14.08 97.79-15.06 99.39-16.03 101.44-16.03L101.44-16.03Q103.17-16.03 104.51-15.31 105.86-14.59 106.56-13.28L106.56-13.28 106.56-14.11Q106.56-14.94 107.1-15.46 107.65-15.97 108.54-15.97L108.54-15.97ZM102.5-3.55Q104.42-3.55 105.49-4.8 106.56-6.05 106.56-8.22L106.56-8.22Q106.56-10.43 105.49-11.68 104.42-12.93 102.5-12.93L102.5-12.93Q100.61-12.93 99.52-11.68 98.43-10.43 98.43-8.22L98.43-8.22Q98.43-6.05 99.52-4.8 100.61-3.55 102.5-3.55L102.5-3.55ZM123.39-15.97Q124.22-16.03 124.7-15.62 125.18-15.2 125.18-14.37L125.18-14.37Q125.18-13.5 124.77-13.09 124.35-12.67 123.26-12.54L123.26-12.54 122.3-12.45Q120.42-12.26 119.54-11.17 118.66-10.08 118.66-8.45L118.66-8.45 118.66-1.73Q118.66-0.8 118.08-0.3 117.5 0.19 116.64 0.19L116.64 0.19Q115.78 0.19 115.22-0.3 114.66-0.8 114.66-1.73L114.66-1.73 114.66-14.11Q114.66-15.01 115.22-15.49 115.78-15.97 116.61-15.97L116.61-15.97Q117.44-15.97 117.95-15.5 118.46-15.04 118.46-14.18L118.46-14.18 118.46-12.9Q119.07-14.3 120.27-15.07 121.47-15.84 122.94-15.94L122.94-15.94 123.39-15.97ZM133.63-16.03Q136.9-16.03 138.48-14.42 140.06-12.8 140.06-9.5L140.06-9.5 140.06-1.7Q140.06-0.83 139.55-0.34 139.04 0.16 138.14 0.16L138.14 0.16Q137.31 0.16 136.78-0.35 136.26-0.86 136.26-1.7L136.26-1.7 136.26-2.4Q135.71-1.15 134.54-0.45 133.38 0.26 131.84 0.26L131.84 0.26Q130.27 0.26 128.99-0.38 127.71-1.02 126.98-2.14 126.24-3.26 126.24-4.64L126.24-4.64Q126.24-6.37 127.12-7.36 128-8.35 129.98-8.8 131.97-9.25 135.46-9.25L135.46-9.25 136.26-9.25 136.26-9.98Q136.26-11.55 135.58-12.27 134.91-12.99 133.41-12.99L133.41-12.99Q132.48-12.99 131.52-12.72 130.56-12.45 129.25-11.94L129.25-11.94Q128.42-11.52 128.03-11.52L128.03-11.52Q127.46-11.52 127.09-11.94 126.72-12.35 126.72-13.02L126.72-13.02Q126.72-13.57 126.99-13.97 127.26-14.37 127.9-14.72L127.9-14.72Q129.02-15.33 130.58-15.68 132.13-16.03 133.63-16.03L133.63-16.03ZM132.64-2.62Q134.24-2.62 135.25-3.7 136.26-4.77 136.26-6.46L136.26-6.46 136.26-7.14 135.68-7.14Q133.54-7.14 132.35-6.94 131.17-6.75 130.66-6.27 130.14-5.79 130.14-4.96L130.14-4.96Q130.14-3.94 130.86-3.28 131.58-2.62 132.64-2.62L132.64-2.62ZM153.12-16.03Q155.14-16.03 156.72-15.01 158.3-13.98 159.18-12.11 160.06-10.24 160.06-7.81L160.06-7.81Q160.06-5.38 159.18-3.55 158.3-1.73 156.74-0.74 155.17 0.26 153.12 0.26L153.12 0.26Q151.46 0.26 150.14-0.45 148.83-1.15 148.13-2.4L148.13-2.4 148.13 4.13Q148.13 4.96 147.58 5.44 147.04 5.92 146.14 5.92L146.14 5.92Q145.25 5.92 144.69 5.41 144.13 4.9 144.13 4.06L144.13 4.06 144.13-14.08Q144.13-14.94 144.66-15.46 145.18-15.97 146.08-15.97L146.08-15.97Q146.98-15.97 147.52-15.46 148.06-14.94 148.06-14.08L148.06-14.08 148.06-13.28Q148.77-14.59 150.1-15.31 151.42-16.03 153.12-16.03L153.12-16.03ZM152.06-2.85Q153.95-2.85 155.01-4.14 156.06-5.44 156.06-7.81L156.06-7.81Q156.06-10.24 155.01-11.58 153.95-12.93 152.06-12.93L152.06-12.93Q150.14-12.93 149.1-11.62 148.06-10.3 148.06-7.87L148.06-7.87Q148.06-5.47 149.1-4.16 150.14-2.85 152.06-2.85L152.06-2.85ZM172.51-16.03Q178.02-16.03 178.02-9.6L178.02-9.6 178.02-1.73Q178.02-0.83 177.49-0.32 176.96 0.19 176.03 0.19L176.03 0.19Q175.1 0.19 174.56-0.32 174.02-0.83 174.02-1.73L174.02-1.73 174.02-9.6Q174.02-11.3 173.33-12.08 172.64-12.86 171.17-12.86L171.17-12.86Q169.44-12.86 168.4-11.78 167.36-10.69 167.36-8.86L167.36-8.86 167.36-1.73Q167.36-0.83 166.82-0.32 166.27 0.19 165.34 0.19L165.34 0.19Q164.42 0.19 163.89-0.32 163.36-0.83 163.36-1.73L163.36-1.73 163.36-20.86Q163.36-21.7 163.92-22.21 164.48-22.72 165.38-22.72L165.38-22.72Q166.27-22.72 166.82-22.24 167.36-21.76 167.36-20.93L167.36-20.93 167.36-13.47Q168.16-14.72 169.49-15.38 170.82-16.03 172.51-16.03L172.51-16.03Z" transform="translate(-1.2200000286102295, 22.719999313354492)"></path></g> <!----> <!----> <!----> <!----> <!----> <!----> <!----></g></g> <!----></g></g><defs v-gra="od"></defs></svg>
